<?xml version="1.0" encoding="UTF-8" standalone="no"?>
<!DOCTYPE svg PUBLIC "-//W3C//DTD SVG 1.1//EN" "http://www.w3.org/Graphics/SVG/1.1/DTD/svg11.dtd">
<svg width="124" height="34" viewBox="0 0 193 37" version="1.1" xmlns="http://www.w3.org/2000/svg" xmlns:xlink="http://www.w3.org/1999/xlink" xml:space="preserve" xmlns:serif="http://www.serif.com/" style="fill-rule:evenodd;clip-rule:evenodd;stroke-linejoin:round;stroke-miterlimit:2;">
    <g id="Artboard1" transform="matrix(1,0,0,1,-0.698242,0)">
        <rect x="0.698" y="0" width="192.755" height="36.12" style="fill:none;"/>
        <g id="_-Discord-" serif:id="&quot;Discord&quot;" transform="matrix(1,0,0,1,0.698242,0)">
            <path d="M64.68,7.56L74.88,7.56C77.34,7.56 79.44,7.92 81.12,8.7C82.68,9.36 84,10.5 84.96,11.94C85.8,13.38 86.28,15 86.22,16.62C86.22,18.3 85.8,19.92 84.9,21.36C83.94,22.86 82.5,24 80.88,24.72C79.08,25.56 76.8,25.98 74.16,25.98L64.68,25.98L64.68,7.56ZM74.1,21.24C75.78,21.24 77.04,20.82 77.94,19.98C78.84,19.08 79.32,17.88 79.26,16.56C79.32,15.36 78.9,14.22 78.06,13.38C77.28,12.6 76.08,12.18 74.46,12.18L71.28,12.18L71.28,21.18L74.1,21.18L74.1,21.24Z" style="fill:white;fill-rule:nonzero;"/>
            <path d="M101.58,25.92C100.26,25.56 98.94,25.02 97.74,24.3L97.74,19.92C98.76,20.7 99.96,21.24 101.16,21.54C102.54,21.96 103.92,22.14 105.36,22.2C105.84,22.2 106.32,22.14 106.8,21.96C107.1,21.78 107.28,21.6 107.28,21.36C107.28,21.12 107.22,20.88 107.04,20.7C106.74,20.46 106.38,20.34 106.02,20.28L102.9,19.56C101.1,19.14 99.84,18.54 99.06,17.82C98.28,17.04 97.86,15.96 97.92,14.88C97.92,13.92 98.28,12.96 98.94,12.24C99.72,11.4 100.68,10.8 101.76,10.5C103.14,10.08 104.58,9.84 106.08,9.9C107.46,9.9 108.78,10.02 110.1,10.38C111.18,10.62 112.2,11.04 113.16,11.58L113.16,15.72C112.26,15.18 111.3,14.82 110.34,14.58C109.26,14.28 108.12,14.16 107.04,14.16C105.42,14.16 104.58,14.46 104.58,15C104.58,15.24 104.7,15.48 104.94,15.6C105.36,15.78 105.84,15.9 106.32,16.02L108.96,16.5C110.64,16.8 111.96,17.34 112.8,18.06C113.64,18.78 114.06,19.92 114.06,21.36C114.06,22.92 113.28,24.36 111.96,25.14C110.58,26.04 108.6,26.52 106.02,26.52C104.52,26.46 103.02,26.28 101.58,25.92Z" style="fill:white;fill-rule:nonzero;"/>
            <path d="M120.18,25.38C118.8,24.72 117.6,23.7 116.76,22.38C115.98,21.12 115.62,19.62 115.62,18.12C115.62,16.62 115.98,15.18 116.82,13.92C117.66,12.6 118.86,11.64 120.3,10.98C122.04,10.26 123.9,9.84 125.76,9.9C128.4,9.9 130.56,10.44 132.3,11.58L132.3,16.38C131.64,15.96 130.92,15.6 130.14,15.36C129.3,15.12 128.4,14.94 127.5,14.94C125.88,14.94 124.62,15.24 123.66,15.84C122.34,16.56 121.92,18.18 122.64,19.5C122.88,19.92 123.24,20.28 123.66,20.52C124.56,21.12 125.82,21.42 127.56,21.42C128.46,21.42 129.3,21.3 130.14,21.06C130.92,20.82 131.64,20.52 132.3,20.1L132.3,24.72C130.26,25.92 127.98,26.52 125.64,26.46C123.78,26.52 121.86,26.16 120.18,25.38Z" style="fill:white;fill-rule:nonzero;"/>
            <path d="M138.84,25.38C137.4,24.72 136.2,23.7 135.36,22.38C134.58,21.12 134.16,19.62 134.16,18.12C134.16,16.62 134.52,15.18 135.36,13.92C136.2,12.66 137.4,11.64 138.84,11.04C142.26,9.66 146.16,9.66 149.58,11.04C150.96,11.64 152.16,12.66 153,13.92C153.78,15.18 154.2,16.68 154.2,18.12C154.2,19.62 153.78,21.12 153,22.38C152.16,23.7 150.96,24.72 149.58,25.38C146.1,26.82 142.26,26.82 138.84,25.38ZM146.76,20.7C147.42,20.04 147.78,19.08 147.72,18.18C147.78,17.22 147.42,16.32 146.76,15.66C146.04,15 145.08,14.7 144.12,14.7C143.16,14.64 142.2,15 141.48,15.66C140.82,16.32 140.46,17.22 140.52,18.18C140.46,19.14 140.82,20.04 141.48,20.7C142.2,21.36 143.16,21.72 144.12,21.66C145.14,21.72 146.1,21.36 146.76,20.7Z" style="fill:white;fill-rule:nonzero;"/>
            <path d="M169.92,10.86L169.92,16.56C169.14,16.08 168.24,15.84 167.34,15.9C165.96,15.9 164.88,16.32 164.1,17.16C163.38,18 162.96,19.32 162.96,21.12L162.96,25.92L156.54,25.92L156.54,10.56L162.84,10.56L162.84,15.42C163.2,13.62 163.74,12.3 164.52,11.46C165.3,10.62 166.38,10.14 167.52,10.2C168.36,10.2 169.2,10.44 169.92,10.86Z" style="fill:white;fill-rule:nonzero;"/>
            <g transform="matrix(-0.965926,-0.258819,-0.258819,0.965926,360.553,50.4477)">
                <path d="M191.28,7.02L191.28,25.92L184.86,25.92L184.86,22.5C184.38,23.7 183.48,24.78 182.4,25.44C181.14,26.16 179.76,26.52 178.32,26.46C177,26.52 175.68,26.1 174.54,25.38C173.46,24.66 172.56,23.64 172.02,22.44C171.42,21.12 171.12,19.68 171.12,18.24C171.06,16.74 171.42,15.24 172.02,13.92C172.62,12.66 173.58,11.64 174.72,10.92C175.92,10.2 177.3,9.84 178.68,9.84C181.74,9.84 183.78,11.16 184.86,13.8L184.86,7.02L191.28,7.02ZM183.9,20.58C184.56,19.92 184.92,19.02 184.86,18.12C184.86,17.22 184.5,16.32 183.9,15.72C182.4,14.46 180.24,14.46 178.68,15.72C178.02,16.38 177.66,17.22 177.72,18.12C177.66,19.02 178.02,19.92 178.68,20.58C179.4,21.24 180.3,21.54 181.26,21.54C182.28,21.6 183.18,21.24 183.9,20.58Z" style="fill:white;fill-rule:nonzero;"/>
            </g>
            <path d="M91.68,12.24C93.436,12.24 94.86,10.951 94.86,9.36C94.86,7.769 93.436,6.48 91.68,6.48C89.924,6.48 88.5,7.769 88.5,9.36C88.5,10.951 89.924,12.24 91.68,12.24Z" style="fill:white;fill-rule:nonzero;"/>
            <path d="M88.5,14.22C90.54,15.06 92.88,15.06 94.92,14.22L94.92,26.04L88.5,26.04L88.5,14.22Z" style="fill:white;fill-rule:nonzero;"/>
        </g>
        <g id="symbol" transform="matrix(1,0,0,1,0.698242,0)">
            <path d="M41.04,3C37.92,1.62 34.62,0.6 31.2,0C30.72,0.84 30.3,1.68 29.94,2.58C26.34,2.04 22.62,2.04 19.02,2.58C18.66,1.68 18.24,0.84 17.76,0C14.4,0.6 11.1,1.62 7.92,3.06C1.74,12.24 0.06,21.18 0.9,30.06C4.56,32.76 8.64,34.8 12.96,36.12C13.92,34.8 14.82,33.42 15.54,31.98C14.16,31.44 12.78,30.78 11.46,30.06C11.82,29.82 12.12,29.58 12.48,29.34C20.1,32.94 28.92,32.94 36.6,29.34C36.9,29.58 37.26,29.88 37.62,30.06C36.3,30.84 34.98,31.5 33.54,31.98C34.26,33.42 35.16,34.8 36.12,36.12C40.44,34.8 44.52,32.76 48.18,30.06C49.14,19.8 46.44,10.92 41.04,3ZM16.56,24.6C14.22,24.6 12.24,22.44 12.24,19.86C12.24,17.28 14.1,15.06 16.5,15.06C18.9,15.06 20.82,17.22 20.82,19.86C20.82,22.5 18.96,24.6 16.56,24.6ZM32.4,24.6C30.06,24.6 28.14,22.44 28.14,19.86C28.14,17.28 30,15.06 32.4,15.06C34.8,15.06 36.72,17.22 36.66,19.86C36.66,22.5 34.8,24.6 32.4,24.6Z" style="fill:white;fill-rule:nonzero;"/>
        </g>
    </g>
</svg>
